<svg id="call" xmlns="http://www.w3.org/2000/svg" width="20.946" height="20.946" viewBox="0 0 20.946 20.946">
  <g id="Group_8" data-name="Group 8">
    <path id="Path_14" data-name="Path 14" d="M19.265,13.748a11.892,11.892,0,0,1-3.735-.595,1.707,1.707,0,0,0-1.66.35l-2.355,1.778A13.015,13.015,0,0,1,5.663,9.431L7.389,7.137a1.693,1.693,0,0,0,.416-1.715,11.91,11.91,0,0,1-.6-3.741A1.683,1.683,0,0,0,5.527,0H1.681A1.683,1.683,0,0,0,0,1.681,19.287,19.287,0,0,0,19.265,20.946a1.683,1.683,0,0,0,1.681-1.681V15.429A1.683,1.683,0,0,0,19.265,13.748Z" fill="#d4d4cd"/>
  </g>
</svg>
