<svg id="call" xmlns="http://www.w3.org/2000/svg" width="36.121" height="36.121" viewBox="0 0 36.121 36.121">
  <g id="Group_8" data-name="Group 8">
    <path id="Path_14" data-name="Path 14" d="M33.223,23.709a20.508,20.508,0,0,1-6.441-1.026,2.944,2.944,0,0,0-2.863.6l-4.061,3.066A22.445,22.445,0,0,1,9.766,16.264l2.976-3.956A2.92,2.92,0,0,0,13.46,9.35,20.54,20.54,0,0,1,12.43,2.9,2.9,2.9,0,0,0,9.532,0H2.9A2.9,2.9,0,0,0,0,2.9,33.26,33.26,0,0,0,33.223,36.121a2.9,2.9,0,0,0,2.9-2.9V26.608A2.9,2.9,0,0,0,33.223,23.709Z" fill="#0a3641"/>
  </g>
</svg>
