<svg xmlns="http://www.w3.org/2000/svg" width="21.709" height="20.634" viewBox="0 0 21.709 20.634">
  <g id="Group_44" data-name="Group 44" transform="translate(0 -2)">
    <path id="Path_18" data-name="Path 18" d="M21.344,21.843,19.51,20.172V14.631a.638.638,0,0,0-.638-.638H14.457a.638.638,0,0,0-.638.638v.355L11.6,12.968a1.108,1.108,0,0,0-1.5,0L.365,21.843a1.113,1.113,0,0,0,.75,1.936H2.67v8.892a.638.638,0,0,0,.638.638H8.647a.638.638,0,0,0,.638-.638v-5.4h3.138v5.4a.638.638,0,0,0,.638.638H18.4a.638.638,0,0,0,.638-.638V23.779h1.556a1.113,1.113,0,0,0,.75-1.936ZM18.4,22.5a.638.638,0,0,0-.638.638v8.892H13.7v-5.4a.638.638,0,0,0-.638-.638H8.647a.638.638,0,0,0-.638.638v5.4H3.947V23.14a.638.638,0,0,0-.638-.638H1.537l9.318-8.49L14.027,16.9a.638.638,0,0,0,1.068-.472V15.269h3.138v5.184a.638.638,0,0,0,.208.472l1.73,1.576Z" transform="translate(0 -10.676)" fill="#d4d4cd"/>
  </g>
</svg>
