<svg xmlns="http://www.w3.org/2000/svg" width="42.922" height="42.93" viewBox="0 0 42.922 42.93">
  <g id="instagram" transform="translate(-0.449)">
    <path id="Path_19" data-name="Path 19" d="M43.261,12.622a15.687,15.687,0,0,0-1-5.208,11,11,0,0,0-6.282-6.281,15.727,15.727,0,0,0-5.208-1C28.476.025,27.746,0,21.918,0S15.36.025,13.07.126a15.691,15.691,0,0,0-5.208,1A10.475,10.475,0,0,0,4.055,3.606a10.57,10.57,0,0,0-2.474,3.8,15.729,15.729,0,0,0-1,5.208c-.109,2.3-.134,3.028-.134,8.856s.025,6.558.126,8.848a15.686,15.686,0,0,0,1,5.208,11,11,0,0,0,6.281,6.281,15.729,15.729,0,0,0,5.208,1c2.289.1,3.019.126,8.848.126s6.558-.025,8.848-.126a15.683,15.683,0,0,0,5.208-1,10.981,10.981,0,0,0,6.282-6.281,15.739,15.739,0,0,0,1-5.208c.1-2.29.126-3.019.126-8.848s-.009-6.558-.109-8.848ZM39.4,30.149a11.767,11.767,0,0,1-.738,3.984,7.121,7.121,0,0,1-4.076,4.076,11.809,11.809,0,0,1-3.984.738c-2.264.1-2.943.126-8.671.126s-6.416-.025-8.672-.126a11.761,11.761,0,0,1-3.984-.738,6.606,6.606,0,0,1-2.465-1.6,6.674,6.674,0,0,1-1.6-2.465,11.81,11.81,0,0,1-.738-3.984c-.1-2.264-.126-2.944-.126-8.672s.025-6.416.126-8.671A11.761,11.761,0,0,1,5.2,8.831a6.525,6.525,0,0,1,1.61-2.466,6.664,6.664,0,0,1,2.465-1.6,11.817,11.817,0,0,1,3.984-.738c2.264-.1,2.944-.126,8.671-.126s6.416.025,8.672.126a11.767,11.767,0,0,1,3.984.738,6.6,6.6,0,0,1,2.465,1.6,6.673,6.673,0,0,1,1.6,2.466,11.815,11.815,0,0,1,.738,3.984c.1,2.264.126,2.943.126,8.671s-.025,6.4-.126,8.663Zm0,0" transform="translate(0)" fill="#d4d4cd"/>
    <path id="Path_20" data-name="Path 20" d="M135.977,124.5a11.028,11.028,0,1,0,11.028,11.028A11.031,11.031,0,0,0,135.977,124.5Zm0,18.182a7.154,7.154,0,1,1,7.154-7.154A7.155,7.155,0,0,1,135.977,142.682Zm0,0" transform="translate(-114.059 -114.059)" fill="#d4d4cd"/>
    <path id="Path_21" data-name="Path 21" d="M367.6,91.176a2.575,2.575,0,1,1-2.575-2.575A2.575,2.575,0,0,1,367.6,91.176Zm0,0" transform="translate(-331.642 -81.171)" fill="#d4d4cd"/>
  </g>
</svg>
