<svg id="mail" xmlns="http://www.w3.org/2000/svg" width="42.5" height="28.641" viewBox="0 0 42.5 28.641">
  <g id="Group_7" data-name="Group 7" transform="translate(0 0)">
    <path id="Path_13" data-name="Path 13" d="M38.342,83.478H4.158A4.164,4.164,0,0,0,0,87.636v20.326a4.164,4.164,0,0,0,4.158,4.158H38.342a4.164,4.164,0,0,0,4.158-4.158V87.636A4.164,4.164,0,0,0,38.342,83.478ZM38.23,86.25l-16,16a1.385,1.385,0,0,1-1.96,0l-16-16ZM2.772,107.85V88.672l9.589,9.589Zm2.422,1.5,9.127-9.127,3.989,3.989a4.162,4.162,0,0,0,5.88,0l3.989-3.989,9.127,9.127Zm34.535-1.5-9.589-9.589,9.589-9.589V107.85Z" transform="translate(0 -83.478)" fill="#196173"/>
  </g>
</svg>
