<svg id="Group_52" data-name="Group 52" xmlns="http://www.w3.org/2000/svg" width="34.172" height="45.707" viewBox="0 0 34.172 45.707">
  <g id="Path_13" data-name="Path 13" fill="none">
    <path d="M17.086,0A17.086,17.086,0,0,1,34.172,17.086c0,9.436-16.85,29.194-17.086,28.608S0,26.522,0,17.086A17.086,17.086,0,0,1,17.086,0Z" stroke="none"/>
    <path d="M 17.0860481262207 3.000003814697266 C 13.32352828979492 3.000003814697266 9.78620719909668 4.465202331542969 7.125707626342773 7.125713348388672 C 4.465208053588867 9.786212921142578 2.999998092651367 13.32352447509766 2.999998092651367 17.08604431152344 C 2.999998092651367 18.66385269165039 3.783397674560547 22.47677421569824 9.030048370361328 30.2856330871582 C 11.94282531738281 34.62087249755859 15.21349334716797 38.68012237548828 17.28431510925293 41.19025802612305 C 18.97243881225586 39.20538330078125 21.51817512512207 36.00262832641602 24.07368850708008 32.25169372558594 C 28.5848274230957 25.63032341003418 31.17209815979004 20.10265350341797 31.17209815979004 17.08604431152344 C 31.17209815979004 13.32352447509766 29.70688819885254 9.786212921142578 27.04638862609863 7.125713348388672 C 24.38588714599609 4.465202331542969 20.84856796264648 3.000003814697266 17.0860481262207 3.000003814697266 M 17.0860481262207 3.814697265625e-06 C 26.52240753173828 3.814697265625e-06 34.17209625244141 7.649684906005859 34.17209625244141 17.08604431152344 C 34.17209625244141 26.52241706848145 17.32196044921875 46.28023147583008 17.0860481262207 45.69434356689453 C 16.85013771057129 45.10844421386719 0 26.52241325378418 0 17.08604431152344 C 0 7.649684906005859 7.649688720703125 3.814697265625e-06 17.0860481262207 3.814697265625e-06 Z" stroke="none" fill="#0a3641"/>
  </g>
  <g id="Ellipse_2" data-name="Ellipse 2" transform="translate(9.601 9.194)" fill="none" stroke="#0a3641" stroke-width="3">
    <ellipse cx="7.5" cy="7" rx="7.5" ry="7" stroke="none"/>
    <ellipse cx="7.5" cy="7" rx="6" ry="5.5" fill="none"/>
  </g>
</svg>
