<svg id="shopping-cart" xmlns="http://www.w3.org/2000/svg" width="65.59" height="57.648" viewBox="0 0 65.59 57.648">
  <path id="Path_4" data-name="Path 4" d="M21.132,38.433h34.85a1.922,1.922,0,0,0,1.848-1.394l7.686-26.9a1.921,1.921,0,0,0-1.848-2.45H16.7L15.327,1.5A1.922,1.922,0,0,0,13.451,0H1.921a1.922,1.922,0,1,0,0,3.843H11.91l6.938,31.221a5.764,5.764,0,0,0,2.29,11.054H55.982a1.922,1.922,0,1,0,0-3.843H21.137a1.921,1.921,0,0,1-.005-3.843Zm39.989-26.9L54.533,34.589H22.679L17.554,11.53Zm0,0" transform="translate(0 0)" fill="#0a3641"/>
  <path id="Path_5" data-name="Path 5" d="M150,365.765A5.765,5.765,0,1,0,155.765,360,5.771,5.771,0,0,0,150,365.765Zm5.765-1.922a1.922,1.922,0,1,1-1.922,1.922A1.924,1.924,0,0,1,155.765,363.843Zm0,0" transform="translate(-130.784 -313.882)" fill="#0a3641"/>
  <path id="Path_6" data-name="Path 6" d="M362,365.765A5.765,5.765,0,1,0,367.765,360,5.771,5.771,0,0,0,362,365.765Zm5.765-1.922a1.922,1.922,0,1,1-1.922,1.922A1.924,1.924,0,0,1,367.765,363.843Zm0,0" transform="translate(-315.626 -313.882)" fill="#0a3641"/>
</svg>
