<svg xmlns="http://www.w3.org/2000/svg" width="25.384" height="22.311" viewBox="0 0 25.384 22.311">
  <g id="shopping-cart" transform="translate(0 0)">
    <path id="Path_4" data-name="Path 4" d="M8.178,14.874H21.666a.744.744,0,0,0,.715-.539L25.356,3.923a.744.744,0,0,0-.715-.948H6.463L5.932.582A.744.744,0,0,0,5.206,0H.744a.744.744,0,0,0,0,1.487H4.609L7.294,13.57a2.231,2.231,0,0,0,.886,4.278H21.666a.744.744,0,1,0,0-1.487H8.18a.744.744,0,0,1,0-1.487ZM23.655,4.462,21.1,13.386H8.777L6.794,4.462Zm0,0" transform="translate(0)" fill="#d4d4cd"/>
    <path id="Path_5" data-name="Path 5" d="M150,362.231A2.231,2.231,0,1,0,152.231,360,2.234,2.234,0,0,0,150,362.231Zm2.231-.744a.744.744,0,1,1-.744.744A.745.745,0,0,1,152.231,361.487Zm0,0" transform="translate(-142.563 -342.151)" fill="#d4d4cd"/>
    <path id="Path_6" data-name="Path 6" d="M362,362.231A2.231,2.231,0,1,0,364.231,360,2.234,2.234,0,0,0,362,362.231Zm2.231-.744a.744.744,0,1,1-.744.744A.745.745,0,0,1,364.231,361.487Zm0,0" transform="translate(-344.053 -342.151)" fill="#d4d4cd"/>
  </g>
</svg>
